<svg width="467" height="128" viewBox="0 0 467 128" fill="none" xmlns="http://www.w3.org/2000/svg">
<mask id="mask0_27_21" style="mask-type:alpha" maskUnits="userSpaceOnUse" x="0" y="0" width="128" height="128">
<circle cx="64" cy="64" r="64" fill="#D9D9D9"/>
</mask>
<g mask="url(#mask0_27_21)">
<rect width="128" height="128" rx="16" fill="#3B63C1"/>
<path d="M0 46H25.3726C29.616 46 33.6857 47.6857 36.6863 50.6863L37.3137 51.3137C40.3143 54.3143 44.384 56 48.6274 56H128V134H0V46Z" fill="#FFC37D" fill-opacity="0.9"/>
<rect y="64" width="128" height="70" fill="#FAFAFA"/>
<path d="M0 82H25.3726C29.616 82 33.6857 80.3143 36.6863 77.3137L37.3137 76.6863C40.3143 73.6857 44.384 72 48.6274 72H128V150H0L0 82Z" fill="#FFC37D"/>
</g>
<path d="M429.047 64.3938C429.047 58.8515 430.796 54.3319 434.293 50.835C437.79 47.3381 442.078 45.5897 447.159 45.5897C452.041 45.5897 455.967 47.668 458.936 51.8247V31.635H466.754V83H458.936V77.4577C456.165 81.5484 452.008 83.5938 446.466 83.5938C441.649 83.5938 437.526 81.8123 434.095 78.2494C430.73 74.6206 429.047 70.002 429.047 64.3938ZM448.148 76.6659C451.249 76.6659 453.855 75.5443 455.967 73.301C458.078 71.0577 459.134 68.1876 459.134 64.6907C459.134 61.2598 458.045 58.3567 455.868 55.9814C453.757 53.6061 451.15 52.4185 448.049 52.4185C444.948 52.4185 442.276 53.6061 440.033 55.9814C437.855 58.2907 436.767 61.1938 436.767 64.6907C436.767 68.1876 437.888 71.0577 440.132 73.301C442.375 75.5443 445.047 76.6659 448.148 76.6659Z" fill="#0A2540"/>
<path d="M422.822 67.9567H393.923C394.121 70.5958 395.342 72.7402 397.585 74.3897C399.828 76.0391 402.434 76.8639 405.403 76.8639C410.088 76.8639 413.585 75.4123 415.894 72.5092L420.348 77.3587C416.389 81.5154 411.21 83.5938 404.81 83.5938C399.531 83.5938 395.111 81.8453 391.548 78.3484C387.985 74.8515 386.203 70.233 386.203 64.4928C386.203 58.8845 388.018 54.3319 391.647 50.835C395.276 47.3381 399.663 45.5897 404.81 45.5897C409.956 45.5897 414.245 47.1402 417.676 50.2412C421.107 53.3422 422.822 57.466 422.822 62.6123V67.9567ZM415.102 61.8206C415.102 58.8515 414.146 56.5092 412.232 54.7938C410.385 53.0783 407.977 52.2206 405.008 52.2206C402.039 52.2206 399.432 53.1113 397.189 54.8928C395.012 56.6742 393.923 58.9835 393.923 61.8206H415.102Z" fill="#0A2540"/>
<path d="M377.267 83H369.547V31.635H377.267V83Z" fill="#0A2540"/>
<path d="M358.236 83H350.516V31.635H358.236V83Z" fill="#0A2540"/>
<path d="M339.205 83H331.485V46.1835H339.205V83ZM330.495 35.2969C330.495 33.9773 330.957 32.8556 331.881 31.9319C332.871 30.9422 334.058 30.4474 335.444 30.4474C336.763 30.4474 337.885 30.9422 338.809 31.9319C339.798 32.8556 340.293 33.9773 340.293 35.2969C340.293 36.6824 339.798 37.8701 338.809 38.8598C337.885 39.7835 336.763 40.2453 335.444 40.2453C334.058 40.2453 332.904 39.7505 331.98 38.7608C330.99 37.8371 330.495 36.6824 330.495 35.2969Z" fill="#0A2540"/>
<path d="M322.692 64.3938C322.692 69.936 320.977 74.5216 317.546 78.1505C314.115 81.7793 310.024 83.5938 305.274 83.5938C300.589 83.5938 296.399 81.5484 292.705 77.4577V83H284.985V31.635H292.705V52.6165C295.806 47.9319 299.797 45.5897 304.68 45.5897C309.76 45.5897 314.016 47.3381 317.447 50.835C320.944 54.3319 322.692 58.8515 322.692 64.3938ZM303.492 76.6659C306.659 76.6659 309.331 75.5443 311.509 73.301C313.752 70.9917 314.874 68.0886 314.874 64.5917C314.874 61.0948 313.752 58.1917 311.509 55.8824C309.331 53.5732 306.692 52.4185 303.591 52.4185C300.49 52.4185 297.884 53.6061 295.773 55.9814C293.661 58.2907 292.606 61.1608 292.606 64.5917C292.606 68.0886 293.661 70.9917 295.773 73.301C297.884 75.5443 300.457 76.6659 303.492 76.6659Z" fill="#0A2540"/>
<path d="M265.517 52.4185V71.1237C265.517 72.9051 265.979 74.3237 266.903 75.3793C267.893 76.369 269.212 76.8639 270.862 76.8639C272.379 76.8639 273.963 76.0391 275.612 74.3896L278.779 79.9319C276.008 82.3731 273.006 83.5938 269.773 83.5938C266.408 83.5938 263.571 82.4391 261.262 80.1298C258.952 77.7546 257.798 74.6865 257.798 70.9257V52.4185H253.146V46.1834H257.798V34.6041H265.517V46.1834H275.216V52.4185H265.517Z" fill="#0A2540"/>
<path d="M227.846 76.6659C231.211 76.6659 233.982 75.5443 236.16 73.301C238.403 71.0577 239.525 68.1546 239.525 64.5917C239.525 61.0288 238.403 58.1257 236.16 55.8824C233.982 53.6391 231.211 52.5175 227.846 52.5175C224.481 52.5175 221.71 53.6391 219.533 55.8824C217.355 58.1257 216.267 61.0288 216.267 64.5917C216.267 68.1546 217.355 71.0247 219.533 73.202C221.71 75.5113 224.481 76.6659 227.846 76.6659ZM227.846 83.5938C222.304 83.5938 217.685 81.7793 213.991 78.1505C210.296 74.4556 208.448 69.9361 208.448 64.5917C208.448 59.2474 210.296 54.7608 213.991 51.1319C217.685 47.4371 222.304 45.5897 227.846 45.5897C233.388 45.5897 238.007 47.4371 241.702 51.1319C245.397 54.7608 247.244 59.2474 247.244 64.5917C247.244 69.7381 245.397 74.2247 241.702 78.0515C238.007 81.7464 233.388 83.5938 227.846 83.5938Z" fill="#0A2540"/>
<path d="M199.687 46.1835V78.2495C199.687 84.5835 197.971 89.433 194.54 92.7979C191.109 96.1629 186.524 97.8453 180.783 97.8453C175.373 97.8453 170.359 96.0969 165.74 92.6L169.402 86.7608C173.097 89.4659 176.759 90.8185 180.388 90.8185C188.305 90.8185 192.264 86.8598 192.264 78.9422V74.1917C191.142 76.369 189.493 78.1175 187.315 79.4371C185.138 80.6907 182.73 81.3175 180.091 81.3175C175.208 81.3175 171.183 79.635 168.016 76.2701C164.915 72.8391 163.365 68.5835 163.365 63.5031C163.365 58.3567 164.915 54.101 168.016 50.7361C171.183 47.3051 175.208 45.5897 180.091 45.5897C184.973 45.5897 188.932 47.602 191.967 51.6268V46.1835H199.687ZM181.377 74.2907C184.478 74.2907 187.019 73.235 188.998 71.1237C190.977 68.9464 191.967 66.2742 191.967 63.1072C191.967 59.8742 190.944 57.202 188.899 55.0907C186.92 52.9134 184.379 51.8247 181.278 51.8247C178.177 51.8247 175.67 52.9464 173.757 55.1897C171.909 57.367 170.986 60.0062 170.986 63.1072C170.986 66.2742 171.942 68.9464 173.856 71.1237C175.769 73.235 178.276 74.2907 181.377 74.2907Z" fill="#0A2540"/>
</svg>
